<svg x="0" y="0" width="700" height="350" viewBox="0 0 700 350" xmlns="http://www.w3.org/2000/svg" xmlns:xlink="http://www.w3.org/1999/xlink" xmlns:fi="http://pattern.flaticon.com/"><rect x="0px" y="0px" width="100%" height="100%" opacity="1" fill="#7d7f82"/><defs><g transform="matrix(0.17578125 0 0 0.17578125 305 305)" id="L1_0"><path d="M375.451,315.733c0-4.71-3.823-8.533-8.533-8.533h-51.2c-4.71,0-8.533,3.823-8.533,8.533s3.823,8.533,8.533,8.533h51.2     C371.628,324.267,375.451,320.444,375.451,315.733z"/><path d="M341.317,93.867V51.2c0-4.71-3.823-8.533-8.533-8.533s-8.533,3.823-8.533,8.533v42.667     c0,23.526,19.14,42.667,42.667,42.667h76.8v162.133c0,4.71,3.823,8.533,8.533,8.533s8.533-3.823,8.533-8.533V128     c0-4.71-3.823-8.533-8.533-8.533h-85.333C352.803,119.467,341.317,107.981,341.317,93.867z"/><path d="M366.917,204.8h-68.267c-4.71,0-8.533,3.823-8.533,8.533c0,4.71,3.823,8.533,8.533,8.533h68.267     c4.71,0,8.533-3.823,8.533-8.533C375.451,208.623,371.628,204.8,366.917,204.8z"/><path d="M273.051,213.333c0-4.71-3.823-8.533-8.533-8.533h-51.2c-4.71,0-8.533,3.823-8.533,8.533c0,4.71,3.823,8.533,8.533,8.533     h51.2C269.228,221.867,273.051,218.044,273.051,213.333z"/><path d="M213.317,256c-4.71,0-8.533,3.823-8.533,8.533c0,4.71,3.823,8.533,8.533,8.533h17.067c4.71,0,8.533-3.823,8.533-8.533     c0-4.71-3.823-8.533-8.533-8.533H213.317z"/><path d="M213.317,170.667h85.333c4.71,0,8.533-3.823,8.533-8.533c0-4.71-3.823-8.533-8.533-8.533h-85.333     c-4.71,0-8.533,3.823-8.533,8.533C204.784,166.844,208.607,170.667,213.317,170.667z"/><path d="M264.517,273.067h85.333c4.71,0,8.533-3.823,8.533-8.533c0-4.71-3.823-8.533-8.533-8.533h-85.333     c-4.71,0-8.533,3.823-8.533,8.533C255.984,269.244,259.807,273.067,264.517,273.067z"/><path d="M315.717,358.4c-4.71,0-8.533,3.823-8.533,8.533s3.823,8.533,8.533,8.533h17.067c4.71,0,8.533-3.823,8.533-8.533     s-3.823-8.533-8.533-8.533H315.717z"/><path d="M281.584,307.2h-68.267c-4.71,0-8.533,3.823-8.533,8.533s3.823,8.533,8.533,8.533h68.267c4.71,0,8.533-3.823,8.533-8.533     S286.294,307.2,281.584,307.2z"/><path d="M281.584,358.4h-68.267c-4.71,0-8.533,3.823-8.533,8.533s3.823,8.533,8.533,8.533h68.267c4.71,0,8.533-3.823,8.533-8.533     S286.294,358.4,281.584,358.4z"/><path d="M484.754,351.497l-17.067-17.067c-13.116-13.116-33.101-13.09-46.199,0L309.684,446.234     c-1.596,1.596-2.5,3.772-2.5,6.033v51.2c0,4.71,3.823,8.533,8.533,8.533h51.2c2.261,0,4.437-0.904,6.033-2.5l111.804-111.804     C498.348,384.102,498.348,365.099,484.754,351.497z M410.454,369.596l13.534,13.534l-74.138,74.138l-13.534-13.534     L410.454,369.596z M324.251,494.933v-39.134l39.134,39.134H324.251z M375.451,482.867l-13.534-13.534l74.138-74.138     l13.534,13.534L375.451,482.867z M472.688,385.63l-11.034,11.034l-39.134-39.134l11.034-11.034     c6.741-6.733,15.292-6.767,22.067,0l17.067,17.067C479.591,370.475,479.591,378.726,472.688,385.63z"/><path d="M281.584,494.933H59.717c-14.114,0-25.6-11.486-25.6-25.6V42.667c0-14.114,11.486-25.6,25.6-25.6h269.534L412.084,99.9     c3.336,3.337,8.73,3.337,12.066,0c3.337-3.336,3.337-8.73,0-12.066L338.817,2.5c-1.596-1.604-3.772-2.5-6.033-2.5H59.717     C36.191,0,17.051,19.14,17.051,42.667v426.667c0,23.526,19.14,42.667,42.667,42.667h221.867c4.71,0,8.533-3.823,8.533-8.533     S286.294,494.933,281.584,494.933z"/><path d="M281.584,409.6h-68.267c-4.71,0-8.533,3.823-8.533,8.533s3.823,8.533,8.533,8.533h68.267c4.71,0,8.533-3.823,8.533-8.533     S286.294,409.6,281.584,409.6z"/><path d="M170.651,162.133c0-4.71-3.823-8.533-8.533-8.533h-51.2c-4.71,0-8.533,3.823-8.533,8.533v51.2     c0,4.71,3.823,8.533,8.533,8.533h51.2c4.71,0,8.533-3.823,8.533-8.533V162.133z M153.584,204.8h-34.133v-34.133h34.133V204.8z"/><path d="M110.917,426.667h51.2c4.71,0,8.533-3.823,8.533-8.533v-51.2c0-4.71-3.823-8.533-8.533-8.533h-51.2     c-4.71,0-8.533,3.823-8.533,8.533v51.2C102.384,422.844,106.207,426.667,110.917,426.667z M119.451,375.467h34.133V409.6h-34.133     V375.467z"/><path d="M121.951,321.766c1.604,1.604,3.78,2.5,6.033,2.5c0.282,0,0.555-0.008,0.845-0.043c2.543-0.247,4.838-1.63,6.255-3.755     l34.133-51.2c2.611-3.925,1.553-9.225-2.364-11.836c-3.934-2.62-9.216-1.553-11.836,2.364l-28.356,42.539l-9.711-9.702     c-3.336-3.337-8.73-3.337-12.066,0s-3.337,8.73,0,12.066L121.951,321.766z"/></g><g transform="matrix(-0.1171875 0 0 0.1171875 117.8983154296875 57.5)" id="L1_1"><path d="M375.451,315.733c0-4.71-3.823-8.533-8.533-8.533h-51.2c-4.71,0-8.533,3.823-8.533,8.533s3.823,8.533,8.533,8.533h51.2     C371.628,324.267,375.451,320.444,375.451,315.733z"/><path d="M341.317,93.867V51.2c0-4.71-3.823-8.533-8.533-8.533s-8.533,3.823-8.533,8.533v42.667     c0,23.526,19.14,42.667,42.667,42.667h76.8v162.133c0,4.71,3.823,8.533,8.533,8.533s8.533-3.823,8.533-8.533V128     c0-4.71-3.823-8.533-8.533-8.533h-85.333C352.803,119.467,341.317,107.981,341.317,93.867z"/><path d="M366.917,204.8h-68.267c-4.71,0-8.533,3.823-8.533,8.533c0,4.71,3.823,8.533,8.533,8.533h68.267     c4.71,0,8.533-3.823,8.533-8.533C375.451,208.623,371.628,204.8,366.917,204.8z"/><path d="M273.051,213.333c0-4.71-3.823-8.533-8.533-8.533h-51.2c-4.71,0-8.533,3.823-8.533,8.533c0,4.71,3.823,8.533,8.533,8.533     h51.2C269.228,221.867,273.051,218.044,273.051,213.333z"/><path d="M213.317,256c-4.71,0-8.533,3.823-8.533,8.533c0,4.71,3.823,8.533,8.533,8.533h17.067c4.71,0,8.533-3.823,8.533-8.533     c0-4.71-3.823-8.533-8.533-8.533H213.317z"/><path d="M213.317,170.667h85.333c4.71,0,8.533-3.823,8.533-8.533c0-4.71-3.823-8.533-8.533-8.533h-85.333     c-4.71,0-8.533,3.823-8.533,8.533C204.784,166.844,208.607,170.667,213.317,170.667z"/><path d="M264.517,273.067h85.333c4.71,0,8.533-3.823,8.533-8.533c0-4.71-3.823-8.533-8.533-8.533h-85.333     c-4.71,0-8.533,3.823-8.533,8.533C255.984,269.244,259.807,273.067,264.517,273.067z"/><path d="M315.717,358.4c-4.71,0-8.533,3.823-8.533,8.533s3.823,8.533,8.533,8.533h17.067c4.71,0,8.533-3.823,8.533-8.533     s-3.823-8.533-8.533-8.533H315.717z"/><path d="M281.584,307.2h-68.267c-4.71,0-8.533,3.823-8.533,8.533s3.823,8.533,8.533,8.533h68.267c4.71,0,8.533-3.823,8.533-8.533     S286.294,307.2,281.584,307.2z"/><path d="M281.584,358.4h-68.267c-4.71,0-8.533,3.823-8.533,8.533s3.823,8.533,8.533,8.533h68.267c4.71,0,8.533-3.823,8.533-8.533     S286.294,358.4,281.584,358.4z"/><path d="M484.754,351.497l-17.067-17.067c-13.116-13.116-33.101-13.09-46.199,0L309.684,446.234     c-1.596,1.596-2.5,3.772-2.5,6.033v51.2c0,4.71,3.823,8.533,8.533,8.533h51.2c2.261,0,4.437-0.904,6.033-2.5l111.804-111.804     C498.348,384.102,498.348,365.099,484.754,351.497z M410.454,369.596l13.534,13.534l-74.138,74.138l-13.534-13.534     L410.454,369.596z M324.251,494.933v-39.134l39.134,39.134H324.251z M375.451,482.867l-13.534-13.534l74.138-74.138     l13.534,13.534L375.451,482.867z M472.688,385.63l-11.034,11.034l-39.134-39.134l11.034-11.034     c6.741-6.733,15.292-6.767,22.067,0l17.067,17.067C479.591,370.475,479.591,378.726,472.688,385.63z"/><path d="M281.584,494.933H59.717c-14.114,0-25.6-11.486-25.6-25.6V42.667c0-14.114,11.486-25.6,25.6-25.6h269.534L412.084,99.9     c3.336,3.337,8.73,3.337,12.066,0c3.337-3.336,3.337-8.73,0-12.066L338.817,2.5c-1.596-1.604-3.772-2.5-6.033-2.5H59.717     C36.191,0,17.051,19.14,17.051,42.667v426.667c0,23.526,19.14,42.667,42.667,42.667h221.867c4.71,0,8.533-3.823,8.533-8.533     S286.294,494.933,281.584,494.933z"/><path d="M281.584,409.6h-68.267c-4.71,0-8.533,3.823-8.533,8.533s3.823,8.533,8.533,8.533h68.267c4.71,0,8.533-3.823,8.533-8.533     S286.294,409.6,281.584,409.6z"/><path d="M170.651,162.133c0-4.71-3.823-8.533-8.533-8.533h-51.2c-4.71,0-8.533,3.823-8.533,8.533v51.2     c0,4.71,3.823,8.533,8.533,8.533h51.2c4.71,0,8.533-3.823,8.533-8.533V162.133z M153.584,204.8h-34.133v-34.133h34.133V204.8z"/><path d="M110.917,426.667h51.2c4.71,0,8.533-3.823,8.533-8.533v-51.2c0-4.71-3.823-8.533-8.533-8.533h-51.2     c-4.71,0-8.533,3.823-8.533,8.533v51.2C102.384,422.844,106.207,426.667,110.917,426.667z M119.451,375.467h34.133V409.6h-34.133     V375.467z"/><path d="M121.951,321.766c1.604,1.604,3.78,2.5,6.033,2.5c0.282,0,0.555-0.008,0.845-0.043c2.543-0.247,4.838-1.63,6.255-3.755     l34.133-51.2c2.611-3.925,1.553-9.225-2.364-11.836c-3.934-2.62-9.216-1.553-11.836,2.364l-28.356,42.539l-9.711-9.702     c-3.336-3.337-8.73-3.337-12.066,0s-3.337,8.73,0,12.066L121.951,321.766z"/></g><g transform="matrix(0.078125 0 0 0.078125 242.5 67.5)" id="L1_2"><path d="M213.333,273.067c-4.719,0-8.533,3.823-8.533,8.533v25.6h-59.733c-4.719,0-8.533,3.823-8.533,8.533     s3.814,8.533,8.533,8.533H230.4c32.93,0,59.733,26.795,59.733,59.733c0,4.71,3.814,8.533,8.533,8.533     c4.719,0,8.533-3.823,8.533-8.533c0-42.342-34.449-76.8-76.8-76.8h-8.533v-17.067h8.533c4.719,0,8.533-3.823,8.533-8.533v-51.2     c0-4.71-3.814-8.533-8.533-8.533H93.867c-4.719,0-8.533,3.823-8.533,8.533v51.2c0,4.71,3.814,8.533,8.533,8.533h8.533V307.2     h-8.533c-42.351,0-76.8,34.458-76.8,76.8v85.333c0,23.526,19.14,42.667,42.667,42.667h204.8c23.526,0,42.667-19.14,42.667-42.667     v-51.2c0-4.71-3.814-8.533-8.533-8.533H59.733c-4.719,0-8.533,3.823-8.533,8.533s3.814,8.533,8.533,8.533h230.4v42.667     c0,14.114-11.486,25.6-25.6,25.6h-204.8c-14.114,0-25.6-11.486-25.6-25.6V384c0-32.939,26.803-59.733,59.733-59.733h17.067     c4.719,0,8.533-3.823,8.533-8.533v-25.6H179.2c4.719,0,8.533-3.823,8.533-8.533s-3.814-8.533-8.533-8.533h-76.8v-34.133h119.467     v34.133H213.333z"/><path d="M494.933,196.267V76.8c0-42.342-34.449-76.8-76.8-76.8s-76.8,34.458-76.8,76.8v34.133c0,2.261,0.905,4.437,2.5,6.033     L354.867,128l-11.034,11.034c-1.596,1.596-2.5,3.763-2.5,6.033v221.867c0,2.261,0.905,4.437,2.5,6.033l34.133,34.133     c3.337,3.337,8.73,3.337,12.066,0c3.337-3.336,3.337-8.73,0-12.066L358.4,363.401v-78.268l51.2,51.2v167.134     c0,4.71,3.814,8.533,8.533,8.533c4.719,0,8.533-3.823,8.533-8.533V336.333l51.2-51.2v78.268l-31.633,31.633     c-3.336,3.336-3.336,8.73,0,12.066c1.664,1.664,3.849,2.5,6.033,2.5c2.185,0,4.369-0.836,6.033-2.5l34.133-34.133     c1.596-1.596,2.5-3.772,2.5-6.033V230.4c0-2.261-0.905-4.437-2.5-6.033L481.4,213.333l11.034-11.034     C494.029,200.704,494.933,198.528,494.933,196.267z M409.6,312.201l-51.2-51.2v-78.268l51.2,51.2V312.201z M418.133,34.133     c-4.719,0-8.533,3.823-8.533,8.533v167.134l-51.2-51.2v-10.001l14.566-14.566c1.596-1.596,2.5-3.772,2.5-6.033     s-0.905-4.429-2.5-6.033L358.4,107.401V76.8c0-32.939,26.803-59.733,59.733-59.733c31.804,0,57.796,25.003,59.571,56.371     l-51.038,51.029V42.667C426.667,37.956,422.852,34.133,418.133,34.133z M477.867,192.734L463.3,207.292     c-1.596,1.604-2.5,3.772-2.5,6.042c0,2.261,0.905,4.429,2.5,6.033l14.566,14.566v27.068l-51.2,51.2V148.599l51.2-51.2V192.734z"/></g><g transform="matrix(0.0390625 0 0 0.0390625 165 165)" id="L1_3"><path d="M332.8,409.6c-2.304,0-4.446-0.896-6.05-2.526c-3.319-3.362-8.721-3.396-12.075-0.094     c-3.354,3.311-3.396,8.713-0.085,12.066c4.838,4.915,11.307,7.62,18.21,7.62c14.114,0,25.6-11.486,25.6-25.6v-34.133     c0-14.114-11.486-25.6-25.6-25.6c-14.114,0-25.6,11.486-25.6,25.6v8.533h-76.8c-4.71,0-8.533,3.823-8.533,8.533     s3.823,8.533,8.533,8.533h85.333c4.71,0,8.533-3.823,8.533-8.533v-17.067c0-4.702,3.831-8.533,8.533-8.533     c4.702,0,8.533,3.831,8.533,8.533v34.133C341.333,405.769,337.502,409.6,332.8,409.6z"/><path d="M384,392.533h68.267c4.71,0,8.533-3.823,8.533-8.533s-3.823-8.533-8.533-8.533H384c-4.71,0-8.533,3.823-8.533,8.533     S379.29,392.533,384,392.533z"/><path d="M196.267,307.2c-2.304,0-4.446-0.896-6.05-2.526c-3.311-3.362-8.721-3.396-12.075-0.094     c-3.354,3.311-3.396,8.713-0.085,12.066c4.838,4.915,11.307,7.62,18.21,7.62c14.114,0,25.6-11.486,25.6-25.6v-34.133     c0-14.114-11.486-25.6-25.6-25.6s-25.6,11.486-25.6,25.6v8.533h-8.533c-4.71,0-8.533,3.823-8.533,8.533s3.823,8.533,8.533,8.533     H179.2c4.71,0,8.533-3.823,8.533-8.533v-17.067c0-4.702,3.831-8.533,8.533-8.533c4.702,0,8.533,3.831,8.533,8.533v34.133     C204.8,303.369,200.969,307.2,196.267,307.2z"/><path d="M418.133,85.333h34.133c4.71,0,8.533-3.823,8.533-8.533s-3.823-8.533-8.533-8.533h-34.133     c-4.71,0-8.533,3.823-8.533,8.533S413.423,85.333,418.133,85.333z"/><path d="M486.4,443.733c4.71,0,8.533-3.823,8.533-8.533V8.533c0-4.71-3.823-8.533-8.533-8.533s-8.533,3.823-8.533,8.533V435.2     C477.867,439.91,481.69,443.733,486.4,443.733z"/><path d="M452.267,273.067H435.2c-4.71,0-8.533,3.823-8.533,8.533s3.823,8.533,8.533,8.533h17.067c4.71,0,8.533-3.823,8.533-8.533     S456.977,273.067,452.267,273.067z"/><path d="M384,307.2c-2.304,0-4.446-0.896-6.05-2.526c-3.311-3.362-8.721-3.396-12.075-0.094     c-3.354,3.311-3.396,8.713-0.085,12.066c4.838,4.915,11.307,7.62,18.21,7.62c14.114,0,25.6-11.486,25.6-25.6v-34.133     c0-14.114-11.486-25.6-25.6-25.6s-25.6,11.486-25.6,25.6v8.533H247.467c-4.71,0-8.533,3.823-8.533,8.533s3.823,8.533,8.533,8.533     h119.467c4.71,0,8.533-3.823,8.533-8.533v-17.067c0-4.702,3.831-8.533,8.533-8.533c4.702,0,8.533,3.831,8.533,8.533v34.133     C392.533,303.369,388.702,307.2,384,307.2z"/><path d="M59.733,187.733h187.733c4.71,0,8.533-3.823,8.533-8.533v-17.067c0-4.702,3.831-8.533,8.533-8.533     c4.702,0,8.533,3.831,8.533,8.533v34.133c0,4.702-3.831,8.533-8.533,8.533c-2.295,0-4.446-0.896-6.05-2.526     c-3.311-3.362-8.721-3.396-12.075-0.094c-3.354,3.311-3.396,8.713-0.085,12.066c4.838,4.915,11.307,7.62,18.21,7.62     c14.114,0,25.6-11.486,25.6-25.6v-34.133c0-14.114-11.486-25.6-25.6-25.6s-25.6,11.486-25.6,25.6v8.533h-179.2     c-4.71,0-8.533,3.823-8.533,8.533S55.023,187.733,59.733,187.733z"/><path d="M59.733,290.133h34.133c4.71,0,8.533-3.823,8.533-8.533v-17.067c0-4.702,3.831-8.533,8.533-8.533     c4.702,0,8.533,3.831,8.533,8.533v34.133c0,4.702-3.831,8.533-8.533,8.533c-2.295,0-4.446-0.896-6.05-2.526     c-3.319-3.362-8.721-3.396-12.075-0.094c-3.354,3.311-3.396,8.713-0.085,12.066c4.838,4.915,11.307,7.62,18.21,7.62     c14.114,0,25.6-11.486,25.6-25.6v-34.133c0-14.114-11.486-25.6-25.6-25.6s-25.6,11.486-25.6,25.6v8.533h-25.6     c-4.71,0-8.533,3.823-8.533,8.533S55.023,290.133,59.733,290.133z"/><path d="M59.733,392.533h102.4c4.71,0,8.533-3.823,8.533-8.533v-17.067c0-4.702,3.831-8.533,8.533-8.533     c4.702,0,8.533,3.831,8.533,8.533v34.133c0,4.702-3.831,8.533-8.533,8.533c-2.304,0-4.446-0.896-6.05-2.526     c-3.311-3.362-8.721-3.396-12.075-0.094c-3.354,3.311-3.396,8.713-0.085,12.066c4.838,4.915,11.307,7.62,18.21,7.62     c14.114,0,25.6-11.486,25.6-25.6v-34.133c0-14.114-11.486-25.6-25.6-25.6s-25.6,11.486-25.6,25.6v8.533H59.733     c-4.71,0-8.533,3.823-8.533,8.533S55.023,392.533,59.733,392.533z"/><path d="M486.4,460.8H59.733c-4.71,0-8.533,3.823-8.533,8.533s3.823,8.533,8.533,8.533H486.4c6.869,0,8.431,4.693,8.533,8.533     v8.533H17.067v-8.431c0.102-3.942,1.664-8.636,8.533-8.636c4.71,0,8.533-3.823,8.533-8.533V8.533C34.133,3.823,30.31,0,25.6,0     c-4.71,0-8.533,3.823-8.533,8.533V462.02C4.702,465.835,0,477.85,0,486.4v17.067C0,508.177,3.823,512,8.533,512h494.933     c4.71,0,8.533-3.823,8.533-8.533V486.4C512,476.109,505.182,460.8,486.4,460.8z"/><path d="M59.733,85.333h136.533c4.71,0,8.533-3.823,8.533-8.533V59.733c0-4.702,3.831-8.533,8.533-8.533     c4.702,0,8.533,3.831,8.533,8.533v34.133c0,4.702-3.831,8.533-8.533,8.533c-2.304,0-4.446-0.896-6.05-2.526     c-3.311-3.362-8.721-3.396-12.075-0.094c-3.354,3.311-3.396,8.713-0.085,12.066c4.838,4.915,11.307,7.62,18.21,7.62     c14.114,0,25.6-11.486,25.6-25.6V59.733c0-14.114-11.486-25.6-25.6-25.6c-14.114,0-25.6,11.486-25.6,25.6v8.533h-128     c-4.71,0-8.533,3.823-8.533,8.533S55.023,85.333,59.733,85.333z"/><path d="M264.533,85.333h85.333c4.71,0,8.533-3.823,8.533-8.533V59.733c0-4.702,3.831-8.533,8.533-8.533s8.533,3.831,8.533,8.533     v34.133c0,4.702-3.831,8.533-8.533,8.533c-2.295,0-4.446-0.896-6.05-2.526c-3.311-3.362-8.721-3.396-12.075-0.094     c-3.354,3.311-3.396,8.713-0.085,12.066c4.838,4.915,11.307,7.62,18.21,7.62c14.114,0,25.6-11.486,25.6-25.6V59.733     c0-14.114-11.486-25.6-25.6-25.6s-25.6,11.486-25.6,25.6v8.533h-76.8c-4.71,0-8.533,3.823-8.533,8.533     S259.823,85.333,264.533,85.333z"/><path d="M452.267,170.667H315.733c-4.71,0-8.533,3.823-8.533,8.533s3.823,8.533,8.533,8.533h136.533     c4.71,0,8.533-3.823,8.533-8.533S456.977,170.667,452.267,170.667z"/></g><g transform="matrix(0.0390625 0 0 0.0390625 340 165)" id="L1_4"><path d="M213.333,238.933h51.2c4.71,0,8.533-3.823,8.533-8.533s-3.823-8.533-8.533-8.533h-51.2c-4.71,0-8.533,3.823-8.533,8.533     S208.623,238.933,213.333,238.933z"/><path d="M469.333,68.267h-256c-4.71,0-8.533,3.823-8.533,8.533s3.823,8.533,8.533,8.533H460.8v384     c0,13.636-11.964,25.6-25.6,25.6H76.8c-13.636,0-25.6-11.964-25.6-25.6V77.508c5.487,3.703,11.554,5.879,17.067,6.955v384.87     c0,4.71,3.823,8.533,8.533,8.533s8.533-3.823,8.533-8.533V76.8c0-4.676-3.814-8.482-8.491-8.533     c-4.284-0.051-25.643-1.51-25.643-25.6v-8.533c0-9.412,7.654-17.067,17.067-17.067h401.067c4.71,0,8.533-3.823,8.533-8.533     S474.044,0,469.333,0H68.267C49.442,0,34.133,15.309,34.133,34.133v435.2C34.133,492.459,53.675,512,76.8,512h358.4     c23.125,0,42.667-19.541,42.667-42.667V76.8C477.867,72.09,474.044,68.267,469.333,68.267z"/><path d="M460.8,42.667c0-4.71-3.823-8.533-8.533-8.533H179.2c-4.71,0-8.533,3.823-8.533,8.533v81.801L151.1,104.9     c-3.337-3.337-8.73-3.337-12.066,0l-19.567,19.567V42.667c0-4.71-3.823-8.533-8.533-8.533H76.8c-4.71,0-8.533,3.823-8.533,8.533     c0,4.71,3.823,8.533,8.533,8.533h25.6v93.867c0,3.448,2.082,6.562,5.265,7.885c3.191,1.314,6.852,0.589,9.301-1.852l28.1-28.1     l28.1,28.1c1.63,1.63,3.814,2.5,6.033,2.5c1.101,0,2.21-0.213,3.268-0.649c3.183-1.323,5.265-4.437,5.265-7.885V51.2h264.533     C456.977,51.2,460.8,47.377,460.8,42.667z"/><path d="M153.6,179.2v136.533c0,4.71,3.823,8.533,8.533,8.533h187.733c4.71,0,8.533-3.823,8.533-8.533V179.2     c0-4.71-3.823-8.533-8.533-8.533H162.133C157.423,170.667,153.6,174.49,153.6,179.2z M170.667,187.733h170.667V307.2H170.667     V187.733z"/><path d="M298.667,256h-85.333c-4.71,0-8.533,3.823-8.533,8.533c0,4.71,3.823,8.533,8.533,8.533h85.333     c4.71,0,8.533-3.823,8.533-8.533C307.2,259.823,303.377,256,298.667,256z"/></g><g transform="matrix(-0.1171875 0 0 0.1171875 205 232.5)" id="L1_5"><path d="M213.333,238.933h51.2c4.71,0,8.533-3.823,8.533-8.533s-3.823-8.533-8.533-8.533h-51.2c-4.71,0-8.533,3.823-8.533,8.533     S208.623,238.933,213.333,238.933z"/><path d="M469.333,68.267h-256c-4.71,0-8.533,3.823-8.533,8.533s3.823,8.533,8.533,8.533H460.8v384     c0,13.636-11.964,25.6-25.6,25.6H76.8c-13.636,0-25.6-11.964-25.6-25.6V77.508c5.487,3.703,11.554,5.879,17.067,6.955v384.87     c0,4.71,3.823,8.533,8.533,8.533s8.533-3.823,8.533-8.533V76.8c0-4.676-3.814-8.482-8.491-8.533     c-4.284-0.051-25.643-1.51-25.643-25.6v-8.533c0-9.412,7.654-17.067,17.067-17.067h401.067c4.71,0,8.533-3.823,8.533-8.533     S474.044,0,469.333,0H68.267C49.442,0,34.133,15.309,34.133,34.133v435.2C34.133,492.459,53.675,512,76.8,512h358.4     c23.125,0,42.667-19.541,42.667-42.667V76.8C477.867,72.09,474.044,68.267,469.333,68.267z"/><path d="M460.8,42.667c0-4.71-3.823-8.533-8.533-8.533H179.2c-4.71,0-8.533,3.823-8.533,8.533v81.801L151.1,104.9     c-3.337-3.337-8.73-3.337-12.066,0l-19.567,19.567V42.667c0-4.71-3.823-8.533-8.533-8.533H76.8c-4.71,0-8.533,3.823-8.533,8.533     c0,4.71,3.823,8.533,8.533,8.533h25.6v93.867c0,3.448,2.082,6.562,5.265,7.885c3.191,1.314,6.852,0.589,9.301-1.852l28.1-28.1     l28.1,28.1c1.63,1.63,3.814,2.5,6.033,2.5c1.101,0,2.21-0.213,3.268-0.649c3.183-1.323,5.265-4.437,5.265-7.885V51.2h264.533     C456.977,51.2,460.8,47.377,460.8,42.667z"/><path d="M153.6,179.2v136.533c0,4.71,3.823,8.533,8.533,8.533h187.733c4.71,0,8.533-3.823,8.533-8.533V179.2     c0-4.71-3.823-8.533-8.533-8.533H162.133C157.423,170.667,153.6,174.49,153.6,179.2z M170.667,187.733h170.667V307.2H170.667     V187.733z"/><path d="M298.667,256h-85.333c-4.71,0-8.533,3.823-8.533,8.533c0,4.71,3.823,8.533,8.533,8.533h85.333     c4.71,0,8.533-3.823,8.533-8.533C307.2,259.823,303.377,256,298.667,256z"/></g><path d="M165,0C74.019,0,0,74.019,0,165s74.019,165,165,165c90.982,0,165-74.019,165-165S255.982,0,165,0z" transform="matrix(0.03030303120613098 0 0 0.03030303120613098 82.5 257.5)" id="L1_7" fill="#7af2f6"/><path d="M165,0C74.019,0,0,74.019,0,165s74.019,165,165,165c90.982,0,165-74.019,165-165S255.982,0,165,0z" transform="matrix(0.03030303120613098 0 0 0.03030303120613098 345 82.5)" id="L1_8" fill="#bf1278"/></defs><g fi:class="KUsePattern"><pattern id="pattern_L1_0" width="350" height="350" patternUnits="userSpaceOnUse"><use xlink:href="#L1_0" x="-350" y="-350"/><use xlink:href="#L1_0" x="0" y="-350"/><use xlink:href="#L1_0" x="350" y="-350"/><use xlink:href="#L1_0" x="-350" y="0"/><use xlink:href="#L1_0" x="0" y="0"/><use xlink:href="#L1_0" x="350" y="0"/><use xlink:href="#L1_0" x="-350" y="350"/><use xlink:href="#L1_0" x="0" y="350"/><use xlink:href="#L1_0" x="350" y="350"/></pattern><rect x="0" y="0" width="100%" height="100%" fill="url(#pattern_L1_0)"/></g><g fi:class="KUsePattern"><pattern id="pattern_L1_1" width="350" height="350" patternUnits="userSpaceOnUse"><use xlink:href="#L1_1" x="-350" y="-350"/><use xlink:href="#L1_1" x="0" y="-350"/><use xlink:href="#L1_1" x="350" y="-350"/><use xlink:href="#L1_1" x="-350" y="0"/><use xlink:href="#L1_1" x="0" y="0"/><use xlink:href="#L1_1" x="350" y="0"/><use xlink:href="#L1_1" x="-350" y="350"/><use xlink:href="#L1_1" x="0" y="350"/><use xlink:href="#L1_1" x="350" y="350"/></pattern><rect x="0" y="0" width="100%" height="100%" fill="url(#pattern_L1_1)"/></g><g fi:class="KUsePattern"><pattern id="pattern_L1_2" width="350" height="350" patternUnits="userSpaceOnUse"><use xlink:href="#L1_2" x="-350" y="-350"/><use xlink:href="#L1_2" x="0" y="-350"/><use xlink:href="#L1_2" x="350" y="-350"/><use xlink:href="#L1_2" x="-350" y="0"/><use xlink:href="#L1_2" x="0" y="0"/><use xlink:href="#L1_2" x="350" y="0"/><use xlink:href="#L1_2" x="-350" y="350"/><use xlink:href="#L1_2" x="0" y="350"/><use xlink:href="#L1_2" x="350" y="350"/></pattern><rect x="0" y="0" width="100%" height="100%" fill="url(#pattern_L1_2)"/></g><g fi:class="KUsePattern"><pattern id="pattern_L1_3" width="350" height="350" patternUnits="userSpaceOnUse"><use xlink:href="#L1_3" x="-350" y="-350"/><use xlink:href="#L1_3" x="0" y="-350"/><use xlink:href="#L1_3" x="350" y="-350"/><use xlink:href="#L1_3" x="-350" y="0"/><use xlink:href="#L1_3" x="0" y="0"/><use xlink:href="#L1_3" x="350" y="0"/><use xlink:href="#L1_3" x="-350" y="350"/><use xlink:href="#L1_3" x="0" y="350"/><use xlink:href="#L1_3" x="350" y="350"/></pattern><rect x="0" y="0" width="100%" height="100%" fill="url(#pattern_L1_3)"/></g><g fi:class="KUsePattern"><pattern id="pattern_L1_4" width="350" height="350" patternUnits="userSpaceOnUse"><use xlink:href="#L1_4" x="-350" y="-350"/><use xlink:href="#L1_4" x="0" y="-350"/><use xlink:href="#L1_4" x="350" y="-350"/><use xlink:href="#L1_4" x="-350" y="0"/><use xlink:href="#L1_4" x="0" y="0"/><use xlink:href="#L1_4" x="350" y="0"/><use xlink:href="#L1_4" x="-350" y="350"/><use xlink:href="#L1_4" x="0" y="350"/><use xlink:href="#L1_4" x="350" y="350"/></pattern><rect x="0" y="0" width="100%" height="100%" fill="url(#pattern_L1_4)"/></g><g fi:class="KUsePattern"><pattern id="pattern_L1_5" width="350" height="350" patternUnits="userSpaceOnUse"><use xlink:href="#L1_5" x="-350" y="-350"/><use xlink:href="#L1_5" x="0" y="-350"/><use xlink:href="#L1_5" x="350" y="-350"/><use xlink:href="#L1_5" x="-350" y="0"/><use xlink:href="#L1_5" x="0" y="0"/><use xlink:href="#L1_5" x="350" y="0"/><use xlink:href="#L1_5" x="-350" y="350"/><use xlink:href="#L1_5" x="0" y="350"/><use xlink:href="#L1_5" x="350" y="350"/></pattern><rect x="0" y="0" width="100%" height="100%" fill="url(#pattern_L1_5)"/></g><g fi:class="KUsePattern"><pattern id="pattern_L1_7" width="350" height="350" patternUnits="userSpaceOnUse"><use xlink:href="#L1_7" x="-350" y="-350"/><use xlink:href="#L1_7" x="0" y="-350"/><use xlink:href="#L1_7" x="350" y="-350"/><use xlink:href="#L1_7" x="-350" y="0"/><use xlink:href="#L1_7" x="0" y="0"/><use xlink:href="#L1_7" x="350" y="0"/><use xlink:href="#L1_7" x="-350" y="350"/><use xlink:href="#L1_7" x="0" y="350"/><use xlink:href="#L1_7" x="350" y="350"/></pattern><rect x="0" y="0" width="100%" height="100%" fill="url(#pattern_L1_7)"/></g><g fi:class="KUsePattern"><pattern id="pattern_L1_8" width="350" height="350" patternUnits="userSpaceOnUse"><use xlink:href="#L1_8" x="-350" y="-350"/><use xlink:href="#L1_8" x="0" y="-350"/><use xlink:href="#L1_8" x="350" y="-350"/><use xlink:href="#L1_8" x="-350" y="0"/><use xlink:href="#L1_8" x="0" y="0"/><use xlink:href="#L1_8" x="350" y="0"/><use xlink:href="#L1_8" x="-350" y="350"/><use xlink:href="#L1_8" x="0" y="350"/><use xlink:href="#L1_8" x="350" y="350"/></pattern><rect x="0" y="0" width="100%" height="100%" fill="url(#pattern_L1_8)"/></g></svg>